<svg xmlns="http://www.w3.org/2000/svg" xmlns:xlink="http://www.w3.org/1999/xlink" width="78" height="78" viewBox="0 0 78 78"><defs><ellipse id="b" cx="20" cy="20" rx="19.726" ry="19.718"/><filter id="a" width="252.1%" height="252.1%" x="-76%" y="-76.1%" filterUnits="objectBoundingBox"><feOffset in="SourceAlpha" result="shadowOffsetOuter1"/><feGaussianBlur in="shadowOffsetOuter1" result="shadowBlurOuter1" stdDeviation="10"/><feColorMatrix in="shadowBlurOuter1" values="0 0 0 0 0 0 0 0 0 0 0 0 0 0 0 0 0 0 0.16 0"/></filter></defs><g fill="none" fill-rule="evenodd" transform="translate(19 19)"><use fill="#000" filter="url(#a)" xlink:href="#b"/><use fill="#FFF" xlink:href="#b"/><path d="M19.429 8.623a.8.8 0 0 1 1.125 0c2.18 2.133 4.804 3.128 8.25 3.152.444 0 .796.355.796.805 0 .569 0 1.161.023 1.778.094 5.852.258 13.838-9.373 17.202-.07.024-.164.048-.258.048s-.164-.024-.258-.048c-9.631-3.364-9.468-11.35-9.35-17.201.023-.641.023-1.234.023-1.802 0-.45.351-.806.797-.806 3.421 0 6.046-.995 8.225-3.128zm4.291 7.844l-5.052 4.736-2.19-2.051-1.35 1.265 3.54 3.318 6.402-6.002-1.35-1.266z" fill="#09547C"/></g></svg>