<svg xmlns="http://www.w3.org/2000/svg" xmlns:xlink="http://www.w3.org/1999/xlink" width="78" height="78" viewBox="0 0 78 78"><defs><ellipse id="b" cx="19.726" cy="19.718" rx="19.726" ry="19.718"/><filter id="a" width="252.1%" height="252.1%" x="-76%" y="-76.1%" filterUnits="objectBoundingBox"><feOffset in="SourceAlpha" result="shadowOffsetOuter1"/><feGaussianBlur in="shadowOffsetOuter1" result="shadowBlurOuter1" stdDeviation="10"/><feColorMatrix in="shadowBlurOuter1" values="0 0 0 0 0 0 0 0 0 0 0 0 0 0 0 0 0 0 0.16 0"/></filter><path id="c" d="M.327 0h16.346v20H.327z"/></defs><g fill="none" fill-rule="evenodd" transform="translate(19 19.282)"><use fill="#000" filter="url(#a)" xlink:href="#b"/><use fill="#FFF" xlink:href="#b"/><g transform="translate(11.726 9.718)"><mask id="d" fill="#fff"><use xlink:href="#c"/></mask><path fill="#FDC757" d="M14.54 7.531V5.313C14.54 2.413 11.874 0 8.499 0 5.168 0 2.458 2.383 2.458 5.313v2.22C1.256 7.685.327 8.588.327 9.686v8.126C.327 19.019 1.443 20 2.814 20h11.372c1.371 0 2.487-.981 2.487-2.187V9.687c0-1.1-.93-2.003-2.133-2.156zM4.59 5.313c0-1.896 1.753-3.438 3.909-3.438 2.186 0 3.908 1.563 3.908 3.438V7.5H4.59V5.313zm4.976 10c0 .518-.476.937-1.066.937-.59 0-1.066-.419-1.066-.937v-3.125c0-.52.476-.938 1.066-.938.59 0 1.066.419 1.066.938v3.125z" mask="url(#d)"/></g></g></svg>