<svg xmlns="http://www.w3.org/2000/svg" xmlns:xlink="http://www.w3.org/1999/xlink" width="78" height="78" viewBox="0 0 78 78"><defs><ellipse id="b" cx="19.726" cy="19.718" rx="19.726" ry="19.718"/><filter id="a" width="252.1%" height="252.1%" x="-76%" y="-76.1%" filterUnits="objectBoundingBox"><feOffset in="SourceAlpha" result="shadowOffsetOuter1"/><feGaussianBlur in="shadowOffsetOuter1" result="shadowBlurOuter1" stdDeviation="10"/><feColorMatrix in="shadowBlurOuter1" values="0 0 0 0 0 0 0 0 0 0 0 0 0 0 0 0 0 0 0.16 0"/></filter><path id="c" d="M1.282.5a.777.777 0 0 0-.782.772v15.456c0 .426.35.772.782.772h21.436a.777.777 0 0 0 .782-.772V3.908a.777.777 0 0 0-.782-.772H11.357a.783.783 0 0 1-.676-.383L9.576.883A.785.785 0 0 0 8.9.5H1.282z"/></defs><g fill="none" fill-rule="evenodd" transform="translate(19 19.282)"><use fill="#000" filter="url(#a)" xlink:href="#b"/><use fill="#FFF" xlink:href="#b"/><g transform="translate(8 10.718)"><mask id="d" fill="#fff"><use xlink:href="#c"/></mask><path fill="#39F" d="M1.282.5a.777.777 0 0 0-.782.772v15.456c0 .426.35.772.782.772h21.436a.777.777 0 0 0 .782-.772V3.908a.777.777 0 0 0-.782-.772H11.357a.783.783 0 0 1-.676-.383L9.576.883A.785.785 0 0 0 8.9.5H1.282z" mask="url(#d)"/><path fill="#FFF" d="M2.316 12.435h19.368c.175 0 .316.139.316.31v1.558c0 .17-.141.31-.316.31H2.316a.314.314 0 0 1-.316-.31v-1.559c0-.17.141-.309.316-.309"/></g></g></svg>